<mxfile host="app.diagrams.net" modified="2024-02-12T20:59:23.176Z" agent="Mozilla/5.0 (Windows NT 10.0; Win64; x64; rv:122.0) Gecko/20100101 Firefox/122.0" etag="n6hw1lvJ62cTPVM3Uu2N" version="23.1.3" type="device">
  <diagram name="Seite-1" id="xCbBTno5ND7-D694JuQ2">
    <mxGraphModel dx="1434" dy="782" grid="1" gridSize="10" guides="1" tooltips="1" connect="1" arrows="1" fold="1" page="1" pageScale="1" pageWidth="1169" pageHeight="827" math="0" shadow="0">
      <root>
        <mxCell id="0" />
        <mxCell id="1" parent="0" />
        <mxCell id="qQ0zC2B_MITF3f2VN921-1" value="Profil" style="swimlane;fontStyle=0;childLayout=stackLayout;horizontal=1;startSize=26;horizontalStack=0;resizeParent=1;resizeParentMax=0;resizeLast=0;collapsible=1;marginBottom=0;align=center;fontSize=14;" vertex="1" parent="1">
          <mxGeometry x="520" y="600" width="160" height="188" as="geometry">
            <mxRectangle x="520" y="640" width="70" height="30" as="alternateBounds" />
          </mxGeometry>
        </mxCell>
        <mxCell id="qQ0zC2B_MITF3f2VN921-2" value="&lt;div&gt;Name&lt;/div&gt;&lt;div&gt;&lt;br&gt;&lt;/div&gt;" style="text;strokeColor=none;fillColor=none;spacingLeft=4;spacingRight=4;overflow=hidden;rotatable=0;points=[[0,0.5],[1,0.5]];portConstraint=eastwest;fontSize=12;whiteSpace=wrap;html=1;" vertex="1" parent="qQ0zC2B_MITF3f2VN921-1">
          <mxGeometry y="26" width="160" height="30" as="geometry" />
        </mxCell>
        <mxCell id="qQ0zC2B_MITF3f2VN921-3" value="ID" style="text;strokeColor=none;fillColor=none;spacingLeft=4;spacingRight=4;overflow=hidden;rotatable=0;points=[[0,0.5],[1,0.5]];portConstraint=eastwest;fontSize=12;whiteSpace=wrap;html=1;" vertex="1" parent="qQ0zC2B_MITF3f2VN921-1">
          <mxGeometry y="56" width="160" height="30" as="geometry" />
        </mxCell>
        <mxCell id="qQ0zC2B_MITF3f2VN921-4" value="Geburtsdatum" style="text;strokeColor=none;fillColor=none;spacingLeft=4;spacingRight=4;overflow=hidden;rotatable=0;points=[[0,0.5],[1,0.5]];portConstraint=eastwest;fontSize=12;whiteSpace=wrap;html=1;" vertex="1" parent="qQ0zC2B_MITF3f2VN921-1">
          <mxGeometry y="86" width="160" height="34" as="geometry" />
        </mxCell>
        <mxCell id="qQ0zC2B_MITF3f2VN921-10" value="Adresse" style="text;strokeColor=none;fillColor=none;spacingLeft=4;spacingRight=4;overflow=hidden;rotatable=0;points=[[0,0.5],[1,0.5]];portConstraint=eastwest;fontSize=12;whiteSpace=wrap;html=1;" vertex="1" parent="qQ0zC2B_MITF3f2VN921-1">
          <mxGeometry y="120" width="160" height="34" as="geometry" />
        </mxCell>
        <mxCell id="qQ0zC2B_MITF3f2VN921-43" value="Statistiken" style="text;strokeColor=none;fillColor=none;spacingLeft=4;spacingRight=4;overflow=hidden;rotatable=0;points=[[0,0.5],[1,0.5]];portConstraint=eastwest;fontSize=12;whiteSpace=wrap;html=1;" vertex="1" parent="qQ0zC2B_MITF3f2VN921-1">
          <mxGeometry y="154" width="160" height="34" as="geometry" />
        </mxCell>
        <mxCell id="qQ0zC2B_MITF3f2VN921-11" style="edgeStyle=orthogonalEdgeStyle;rounded=0;orthogonalLoop=1;jettySize=auto;html=1;exitX=0.5;exitY=1;exitDx=0;exitDy=0;entryX=0.5;entryY=0;entryDx=0;entryDy=0;" edge="1" parent="1" source="qQ0zC2B_MITF3f2VN921-5" target="qQ0zC2B_MITF3f2VN921-1">
          <mxGeometry relative="1" as="geometry" />
        </mxCell>
        <mxCell id="qQ0zC2B_MITF3f2VN921-45" style="edgeStyle=orthogonalEdgeStyle;rounded=0;orthogonalLoop=1;jettySize=auto;html=1;exitX=0.5;exitY=0;exitDx=0;exitDy=0;entryX=0;entryY=0.5;entryDx=0;entryDy=0;" edge="1" parent="1" source="qQ0zC2B_MITF3f2VN921-5" target="qQ0zC2B_MITF3f2VN921-39">
          <mxGeometry relative="1" as="geometry" />
        </mxCell>
        <mxCell id="qQ0zC2B_MITF3f2VN921-48" value="erstellt" style="edgeLabel;html=1;align=center;verticalAlign=middle;resizable=0;points=[];" vertex="1" connectable="0" parent="qQ0zC2B_MITF3f2VN921-45">
          <mxGeometry x="-0.3166" y="-2" relative="1" as="geometry">
            <mxPoint x="-2" y="-61" as="offset" />
          </mxGeometry>
        </mxCell>
        <mxCell id="qQ0zC2B_MITF3f2VN921-5" value="User1 (Host)" style="whiteSpace=wrap;html=1;align=center;" vertex="1" parent="1">
          <mxGeometry x="380" y="470" width="100" height="40" as="geometry" />
        </mxCell>
        <mxCell id="qQ0zC2B_MITF3f2VN921-12" style="edgeStyle=orthogonalEdgeStyle;rounded=0;orthogonalLoop=1;jettySize=auto;html=1;exitX=0.5;exitY=1;exitDx=0;exitDy=0;entryX=0.5;entryY=0;entryDx=0;entryDy=0;" edge="1" parent="1" source="qQ0zC2B_MITF3f2VN921-6" target="qQ0zC2B_MITF3f2VN921-1">
          <mxGeometry relative="1" as="geometry" />
        </mxCell>
        <mxCell id="qQ0zC2B_MITF3f2VN921-13" value="besitzt" style="edgeLabel;html=1;align=center;verticalAlign=middle;resizable=0;points=[];" vertex="1" connectable="0" parent="qQ0zC2B_MITF3f2VN921-12">
          <mxGeometry x="0.5833" y="-2" relative="1" as="geometry">
            <mxPoint x="-5" y="-13" as="offset" />
          </mxGeometry>
        </mxCell>
        <mxCell id="qQ0zC2B_MITF3f2VN921-44" style="edgeStyle=orthogonalEdgeStyle;rounded=0;orthogonalLoop=1;jettySize=auto;html=1;exitX=0.5;exitY=0;exitDx=0;exitDy=0;entryX=1;entryY=0.5;entryDx=0;entryDy=0;" edge="1" parent="1" source="qQ0zC2B_MITF3f2VN921-6" target="qQ0zC2B_MITF3f2VN921-38">
          <mxGeometry relative="1" as="geometry" />
        </mxCell>
        <mxCell id="qQ0zC2B_MITF3f2VN921-49" value="tritt bei" style="edgeLabel;html=1;align=center;verticalAlign=middle;resizable=0;points=[];" vertex="1" connectable="0" parent="qQ0zC2B_MITF3f2VN921-44">
          <mxGeometry x="-0.0481" y="-3" relative="1" as="geometry">
            <mxPoint x="-3" y="-51" as="offset" />
          </mxGeometry>
        </mxCell>
        <mxCell id="qQ0zC2B_MITF3f2VN921-6" value="User2 (Gast)" style="whiteSpace=wrap;html=1;align=center;" vertex="1" parent="1">
          <mxGeometry x="700" y="470" width="100" height="40" as="geometry" />
        </mxCell>
        <mxCell id="qQ0zC2B_MITF3f2VN921-16" value="1" style="text;strokeColor=none;align=center;fillColor=none;html=1;verticalAlign=middle;whiteSpace=wrap;rounded=0;" vertex="1" parent="1">
          <mxGeometry x="410" y="520" width="20" height="20" as="geometry" />
        </mxCell>
        <mxCell id="qQ0zC2B_MITF3f2VN921-17" value="1" style="text;strokeColor=none;align=center;fillColor=none;html=1;verticalAlign=middle;whiteSpace=wrap;rounded=0;" vertex="1" parent="1">
          <mxGeometry x="760" y="520" width="20" height="20" as="geometry" />
        </mxCell>
        <mxCell id="qQ0zC2B_MITF3f2VN921-18" value="1" style="text;strokeColor=none;align=center;fillColor=none;html=1;verticalAlign=middle;whiteSpace=wrap;rounded=0;" vertex="1" parent="1">
          <mxGeometry x="575" y="570" width="20" height="20" as="geometry" />
        </mxCell>
        <mxCell id="qQ0zC2B_MITF3f2VN921-19" value="Multiplayer-Game" style="swimlane;fontStyle=0;childLayout=stackLayout;horizontal=1;startSize=26;horizontalStack=0;resizeParent=1;resizeParentMax=0;resizeLast=0;collapsible=1;marginBottom=0;align=center;fontSize=14;" vertex="1" parent="1">
          <mxGeometry x="310" y="120" width="160" height="146" as="geometry" />
        </mxCell>
        <mxCell id="qQ0zC2B_MITF3f2VN921-20" value="IP" style="text;strokeColor=none;fillColor=none;spacingLeft=4;spacingRight=4;overflow=hidden;rotatable=0;points=[[0,0.5],[1,0.5]];portConstraint=eastwest;fontSize=12;whiteSpace=wrap;html=1;" vertex="1" parent="qQ0zC2B_MITF3f2VN921-19">
          <mxGeometry y="26" width="160" height="30" as="geometry" />
        </mxCell>
        <mxCell id="qQ0zC2B_MITF3f2VN921-21" value="Hostname" style="text;strokeColor=none;fillColor=none;spacingLeft=4;spacingRight=4;overflow=hidden;rotatable=0;points=[[0,0.5],[1,0.5]];portConstraint=eastwest;fontSize=12;whiteSpace=wrap;html=1;" vertex="1" parent="qQ0zC2B_MITF3f2VN921-19">
          <mxGeometry y="56" width="160" height="30" as="geometry" />
        </mxCell>
        <mxCell id="qQ0zC2B_MITF3f2VN921-62" value="Chat" style="text;strokeColor=none;fillColor=none;spacingLeft=4;spacingRight=4;overflow=hidden;rotatable=0;points=[[0,0.5],[1,0.5]];portConstraint=eastwest;fontSize=12;whiteSpace=wrap;html=1;" vertex="1" parent="qQ0zC2B_MITF3f2VN921-19">
          <mxGeometry y="86" width="160" height="30" as="geometry" />
        </mxCell>
        <mxCell id="qQ0zC2B_MITF3f2VN921-33" value="Statistiken" style="text;strokeColor=none;fillColor=none;spacingLeft=4;spacingRight=4;overflow=hidden;rotatable=0;points=[[0,0.5],[1,0.5]];portConstraint=eastwest;fontSize=12;whiteSpace=wrap;html=1;" vertex="1" parent="qQ0zC2B_MITF3f2VN921-19">
          <mxGeometry y="116" width="160" height="30" as="geometry" />
        </mxCell>
        <mxCell id="qQ0zC2B_MITF3f2VN921-28" value="Singleplayer-Game" style="swimlane;fontStyle=0;childLayout=stackLayout;horizontal=1;startSize=26;horizontalStack=0;resizeParent=1;resizeParentMax=0;resizeLast=0;collapsible=1;marginBottom=0;align=center;fontSize=14;" vertex="1" parent="1">
          <mxGeometry x="720" y="135" width="160" height="86" as="geometry" />
        </mxCell>
        <mxCell id="qQ0zC2B_MITF3f2VN921-29" value="Schwierigkeit" style="text;strokeColor=none;fillColor=none;spacingLeft=4;spacingRight=4;overflow=hidden;rotatable=0;points=[[0,0.5],[1,0.5]];portConstraint=eastwest;fontSize=12;whiteSpace=wrap;html=1;" vertex="1" parent="qQ0zC2B_MITF3f2VN921-28">
          <mxGeometry y="26" width="160" height="30" as="geometry" />
        </mxCell>
        <mxCell id="qQ0zC2B_MITF3f2VN921-34" value="&lt;div&gt;Statistik&lt;/div&gt;" style="text;strokeColor=none;fillColor=none;spacingLeft=4;spacingRight=4;overflow=hidden;rotatable=0;points=[[0,0.5],[1,0.5]];portConstraint=eastwest;fontSize=12;whiteSpace=wrap;html=1;" vertex="1" parent="qQ0zC2B_MITF3f2VN921-28">
          <mxGeometry y="56" width="160" height="30" as="geometry" />
        </mxCell>
        <mxCell id="qQ0zC2B_MITF3f2VN921-46" style="edgeStyle=orthogonalEdgeStyle;rounded=0;orthogonalLoop=1;jettySize=auto;html=1;exitX=0.5;exitY=0;exitDx=0;exitDy=0;entryX=0;entryY=0.5;entryDx=0;entryDy=0;" edge="1" parent="1" source="qQ0zC2B_MITF3f2VN921-38" target="qQ0zC2B_MITF3f2VN921-29">
          <mxGeometry relative="1" as="geometry" />
        </mxCell>
        <mxCell id="qQ0zC2B_MITF3f2VN921-47" style="edgeStyle=orthogonalEdgeStyle;rounded=0;orthogonalLoop=1;jettySize=auto;html=1;exitX=0.5;exitY=0;exitDx=0;exitDy=0;entryX=1;entryY=0.5;entryDx=0;entryDy=0;" edge="1" parent="1" source="qQ0zC2B_MITF3f2VN921-38" target="qQ0zC2B_MITF3f2VN921-19">
          <mxGeometry relative="1" as="geometry" />
        </mxCell>
        <mxCell id="qQ0zC2B_MITF3f2VN921-54" value="besteht aus" style="edgeLabel;html=1;align=center;verticalAlign=middle;resizable=0;points=[];" vertex="1" connectable="0" parent="qQ0zC2B_MITF3f2VN921-47">
          <mxGeometry x="-0.2824" y="-2" relative="1" as="geometry">
            <mxPoint x="33" y="19" as="offset" />
          </mxGeometry>
        </mxCell>
        <mxCell id="qQ0zC2B_MITF3f2VN921-38" value="Game" style="swimlane;fontStyle=0;childLayout=stackLayout;horizontal=1;startSize=26;horizontalStack=0;resizeParent=1;resizeParentMax=0;resizeLast=0;collapsible=1;marginBottom=0;align=center;fontSize=14;" vertex="1" parent="1">
          <mxGeometry x="515" y="315" width="160" height="86" as="geometry" />
        </mxCell>
        <mxCell id="qQ0zC2B_MITF3f2VN921-39" value="Singleplayer" style="text;strokeColor=none;fillColor=none;spacingLeft=4;spacingRight=4;overflow=hidden;rotatable=0;points=[[0,0.5],[1,0.5]];portConstraint=eastwest;fontSize=12;whiteSpace=wrap;html=1;" vertex="1" parent="qQ0zC2B_MITF3f2VN921-38">
          <mxGeometry y="26" width="160" height="30" as="geometry" />
        </mxCell>
        <mxCell id="qQ0zC2B_MITF3f2VN921-40" value="Multiplayer" style="text;strokeColor=none;fillColor=none;spacingLeft=4;spacingRight=4;overflow=hidden;rotatable=0;points=[[0,0.5],[1,0.5]];portConstraint=eastwest;fontSize=12;whiteSpace=wrap;html=1;" vertex="1" parent="qQ0zC2B_MITF3f2VN921-38">
          <mxGeometry y="56" width="160" height="30" as="geometry" />
        </mxCell>
        <mxCell id="qQ0zC2B_MITF3f2VN921-50" value="1" style="text;strokeColor=none;align=center;fillColor=none;html=1;verticalAlign=middle;whiteSpace=wrap;rounded=0;" vertex="1" parent="1">
          <mxGeometry x="760" y="440" width="20" height="20" as="geometry" />
        </mxCell>
        <mxCell id="qQ0zC2B_MITF3f2VN921-51" value="1" style="text;strokeColor=none;align=center;fillColor=none;html=1;verticalAlign=middle;whiteSpace=wrap;rounded=0;" vertex="1" parent="1">
          <mxGeometry x="400" y="440" width="20" height="20" as="geometry" />
        </mxCell>
        <mxCell id="qQ0zC2B_MITF3f2VN921-52" value="1" style="text;strokeColor=none;align=center;fillColor=none;html=1;verticalAlign=middle;whiteSpace=wrap;rounded=0;" vertex="1" parent="1">
          <mxGeometry x="680" y="330" width="20" height="20" as="geometry" />
        </mxCell>
        <mxCell id="qQ0zC2B_MITF3f2VN921-53" value="1" style="text;strokeColor=none;align=center;fillColor=none;html=1;verticalAlign=middle;whiteSpace=wrap;rounded=0;" vertex="1" parent="1">
          <mxGeometry x="480" y="330" width="20" height="20" as="geometry" />
        </mxCell>
        <mxCell id="qQ0zC2B_MITF3f2VN921-55" value="1" style="text;strokeColor=none;align=center;fillColor=none;html=1;verticalAlign=middle;whiteSpace=wrap;rounded=0;" vertex="1" parent="1">
          <mxGeometry x="600" y="280" width="20" height="20" as="geometry" />
        </mxCell>
        <mxCell id="qQ0zC2B_MITF3f2VN921-56" value="0..1" style="text;strokeColor=none;align=center;fillColor=none;html=1;verticalAlign=middle;whiteSpace=wrap;rounded=0;" vertex="1" parent="1">
          <mxGeometry x="480" y="140" width="20" height="20" as="geometry" />
        </mxCell>
        <mxCell id="qQ0zC2B_MITF3f2VN921-57" value="0..1" style="text;strokeColor=none;align=center;fillColor=none;html=1;verticalAlign=middle;whiteSpace=wrap;rounded=0;" vertex="1" parent="1">
          <mxGeometry x="690" y="135" width="20" height="20" as="geometry" />
        </mxCell>
      </root>
    </mxGraphModel>
  </diagram>
</mxfile>
